<?xml version="1.0" encoding="UTF-8" standalone="no"?>
<svg
   viewBox="0 0 640 640"
   version="1.1"
   id="svg1"
   sodipodi:docname="cart-shopping-orange.svg"
   inkscape:version="1.4.2 (f4327f4, 2025-05-13)"
   xmlns:inkscape="http://www.inkscape.org/namespaces/inkscape"
   xmlns:sodipodi="http://sodipodi.sourceforge.net/DTD/sodipodi-0.dtd"
   xmlns="http://www.w3.org/2000/svg"
   xmlns:svg="http://www.w3.org/2000/svg">
  <defs
     id="defs1" />
  <sodipodi:namedview
     id="namedview1"
     pagecolor="#ffffff"
     bordercolor="#000000"
     borderopacity="0.25"
     inkscape:showpageshadow="2"
     inkscape:pageopacity="0.0"
     inkscape:pagecheckerboard="0"
     inkscape:deskcolor="#d1d1d1"
     inkscape:zoom="1.3828125"
     inkscape:cx="320"
     inkscape:cy="320"
     inkscape:window-width="1920"
     inkscape:window-height="1009"
     inkscape:window-x="1912"
     inkscape:window-y="-8"
     inkscape:window-maximized="1"
     inkscape:current-layer="svg1" />
  <!--!Font Awesome Free 7.0.1 by @fontawesome - https://fontawesome.com License - https://fontawesome.com/license/free Copyright 2025 Fonticons, Inc.-->
  <path
     d="M24 48C10.7 48 0 58.7 0 72C0 85.3 10.7 96 24 96L69.3 96C73.2 96 76.5 98.8 77.2 102.6L129.3 388.9C135.5 423.1 165.3 448 200.1 448L456 448C469.3 448 480 437.3 480 424C480 410.7 469.3 400 456 400L200.1 400C188.5 400 178.6 391.7 176.5 380.3L171.4 352L475 352C505.8 352 532.2 330.1 537.9 299.8L568.9 133.9C572.6 114.2 557.5 96 537.4 96L124.7 96L124.3 94C119.5 67.4 96.3 48 69.2 48L24 48zM208 576C234.5 576 256 554.5 256 528C256 501.5 234.5 480 208 480C181.5 480 160 501.5 160 528C160 554.5 181.5 576 208 576zM432 576C458.5 576 480 554.5 480 528C480 501.5 458.5 480 432 480C405.5 480 384 501.5 384 528C384 554.5 405.5 576 432 576z"
     id="path1" />
  <path
     style="fill:#d45500;stroke-width:0.723164"
     d="m 193.80791,447.28405 c -28.29259,-2.55903 -52.87809,-22.15123 -61.7171,-49.18236 -1.50149,-4.5918 -9.28187,-46.5875 -39.52343,-213.33333 -8.187372,-45.1435 -15.228044,-82.95048 -15.645939,-84.01551 -1.834059,-4.674194 -0.96964,-4.53623 -30.911988,-4.933641 L 18.766587,95.457627 13.933422,93.076972 C 8.6559689,90.477478 5.041942,86.826659 2.4279509,81.454373 1.1345306,78.79613 0.79183859,76.828498 0.7734601,71.954802 0.75221774,66.32166 0.95513701,65.428023 3.2013343,61.262667 6.0776237,55.928866 9.2605903,52.927385 14.79186,50.333008 l 4.0104,-1.881031 28.926554,0.0012 c 25.369997,0.001 29.548951,0.159652 33.9887,1.29002 6.594589,1.678992 17.001647,6.811571 22.216916,10.956989 9.14818,7.271542 16.6566,19.113222 19.16888,30.231637 l 1.26501,5.598478 210.48619,0.186832 210.48619,0.186832 5.44012,2.688692 c 6.75531,3.338703 12.11113,8.787413 15.2674,15.532203 4.43453,9.47637 4.9494,5.47051 -13.18254,102.56599 -17.02571,91.17179 -17.48163,93.18896 -23.20829,102.68289 -8.571,14.20939 -22.64457,24.74264 -39.35231,29.4529 l -5.78531,1.631 -156.74576,0.19357 c -86.21017,0.10646 -156.74576,0.27848 -156.74576,0.38226 0,0.10378 1.28426,7.23377 2.85391,15.84442 3.1064,17.04079 4.39133,20.59913 9.18705,25.44168 1.53115,1.54609 4.57373,3.66135 6.7613,4.70056 l 3.9774,1.88948 133.78531,0.36159 133.78531,0.36158 4.0104,1.88103 c 5.7035,2.67516 8.99277,5.85699 11.66397,11.28296 1.89863,3.85665 2.32898,5.60434 2.34425,9.52005 0.0288,7.38567 -1.85427,11.9138 -7.10699,17.08997 -8.14781,8.02906 7.5894,7.2192 -142.16587,7.31609 -71.79209,0.0464 -133.13446,-0.15103 -136.31638,-0.43882 z"
     id="path2" />
  <path
     style="fill:#d45500;stroke-width:0.723164"
     d="m 427.02825,575.1965 c -6.76179,-0.70343 -10.4492,-1.83315 -16.99435,-5.20658 -8.3227,-4.28961 -16.37037,-12.46597 -20.42044,-20.74698 -15.22247,-31.12474 5.74313,-66.92802 40.13703,-68.54262 19.75692,-0.92747 37.07553,9.63601 45.38712,27.68386 3.25928,7.07722 4.29536,11.93562 4.241,19.88701 -0.0894,13.08102 -4.73341,24.05187 -14.13373,33.38913 -10.30406,10.23494 -23.84538,15.03123 -38.21663,13.53618 z"
     id="path3" />
  <path
     style="fill:#d45500;stroke-width:0.723164"
     d="m 202.42361,575.15189 c -18.67703,-1.95377 -35.44991,-16.58077 -40.49027,-35.31008 -1.54854,-5.75418 -1.73776,-16.9005 -0.38057,-22.41808 3.40778,-13.85413 13.00766,-25.8405 25.74667,-32.14718 14.01911,-6.94042 31.55802,-6.19756 44.95118,1.9039 17.1972,10.40251 26.21134,30.47568 22.36161,49.79606 -1.89793,9.525 -6.02061,17.18247 -13.0535,24.24562 -10.82319,10.86974 -23.8982,15.52365 -39.13512,13.92976 z"
     id="path4" />
  <path
     style="fill:#d45500;stroke-width:0.723164"
     d="m 188.62582,446.20603 c -19.83957,-3.59982 -37.69374,-15.55701 -48.61228,-32.55631 -7.87819,-12.26575 -6.13598,-4.12761 -36.2549,-169.35139 C 74.537025,83.996957 77.449741,98.686075 74.567485,97.084292 73.547715,96.517565 63.900067,95.981368 45.559322,95.472075 L 18.079096,94.708994 14.309181,92.734374 C 5.5616204,88.152542 1.7128486,82.315159 1.2175486,72.878463 0.93363648,67.469231 1.0925347,66.529825 2.9249011,62.784603 5.5224865,57.47533 9.8543136,53.175301 15.109971,50.688976 l 4.172499,-1.973907 30.132776,0.243682 c 29.364921,0.237472 30.252561,0.286412 34.833342,1.920541 6.427154,2.292795 15.405581,7.039651 19.627842,10.37716 8.09192,6.396295 16.65907,19.93545 18.74447,29.622972 0.48539,2.254871 1.15016,4.532837 1.47726,5.062147 0.49227,0.796609 36.81758,1.003597 210.88105,1.201642 l 210.28633,0.239259 5.60658,2.915848 c 6.73029,3.50026 11.4744,8.38254 14.8228,15.25451 4.34552,8.91838 4.52596,7.6177 -16.84211,121.40456 -12.1037,64.45321 -14.27435,74.00261 -18.50027,81.38875 -8.40682,14.69358 -22.63422,25.74656 -39.68587,30.83112 l -6.1469,1.83292 -156.41561,0.31542 c -86.02859,0.17348 -156.61698,0.51678 -156.86309,0.76289 -0.53247,0.53248 2.99176,20.9584 4.9337,28.59496 2.26383,8.90235 6.35115,14.14026 14.01732,17.96317 2.84717,1.41982 5.00196,1.45073 137.03955,1.96607 l 134.14689,0.52359 3.61582,1.71228 c 5.38493,2.55005 8.49762,5.47088 11.26017,10.56614 2.24123,4.13371 2.4789,5.13089 2.46913,10.35931 -0.008,4.32258 -0.39184,6.60811 -1.51779,9.03955 -1.9701,4.25432 -7.91227,10.78678 -10.9768,12.06722 -1.33195,0.55654 -6.54787,1.31382 -11.59094,1.68287 -5.15857,0.3775 -64.20765,0.65168 -134.9997,0.62683 -99.96353,-0.0351 -126.8958,-0.23747 -131.0126,-0.98445 z"
     id="path5" />
  <path
     style="fill:#d45500;stroke-width:0.723164"
     d="m 188.62582,446.20603 c -19.83957,-3.59982 -37.69374,-15.55701 -48.61228,-32.55631 -7.8755,-12.26155 -6.1755,-4.32449 -36.24426,-169.22034 C 76.407474,94.378309 77.46735,99.885426 75.589561,98.007639 73.821288,96.239364 70.097548,95.943709 42.666667,95.393638 L 18.80226,94.915086 14.675374,92.841467 C 5.6464815,88.304758 1.721645,82.482753 1.2175486,72.878463 0.93363648,67.469231 1.0925347,66.529825 2.9249011,62.784603 5.4834859,57.555045 9.7968141,53.226692 14.973618,50.693918 l 4.047374,-1.980196 30.263515,0.244356 c 29.500975,0.238198 30.381955,0.286606 34.964081,1.921214 6.427154,2.292795 15.405581,7.039651 19.627842,10.37716 8.16787,6.456325 16.36685,19.482574 18.97043,30.139551 0.62031,2.538987 1.32839,4.816954 1.57353,5.062147 0.24514,0.245193 95.03559,0.553471 210.64543,0.685063 l 210.19972,0.239259 5.60658,2.915848 c 6.71241,3.49096 11.81247,8.7215 14.98449,15.36787 4.1745,8.7469 4.34649,7.49145 -15.60803,113.93833 -9.87734,52.69049 -13.30813,69.68616 -15.83877,78.46328 -3.22986,11.20226 -10.79197,21.93895 -20.72646,29.42741 -7.4511,5.61653 -12.20286,8.1123 -20.88904,10.97156 l -7.55137,2.48571 -156.77889,0.34596 c -86.22838,0.19028 -156.96682,0.53389 -157.19651,0.76359 -0.48687,0.48686 2.09849,15.9961 4.23905,25.4295 2.60479,11.47931 5.34755,15.65392 13.39123,20.38205 l 3.46376,2.03602 134.50848,0.59262 134.50847,0.59261 3.61582,1.73177 c 5.40229,2.58739 8.50329,5.5033 11.26017,10.5881 2.28403,4.21266 2.47732,5.0596 2.44671,10.72089 -0.026,4.81867 -0.36504,6.78011 -1.56885,9.07733 -2.20291,4.20379 -8.07266,10.48514 -10.90332,11.66786 -1.33195,0.55654 -6.54787,1.31382 -11.59094,1.68287 -5.15857,0.3775 -64.20765,0.65168 -134.9997,0.62683 -99.96353,-0.0351 -126.8958,-0.23747 -131.0126,-0.98445 z"
     id="path6" />
  <path
     style="fill:#d45500;stroke-width:0.723164"
     d="m 188.62582,446.22145 c -22.34565,-4.12101 -42.28832,-18.89218 -52.27433,-38.71863 -4.58704,-9.10721 -4.4491,-8.41686 -32.94609,-164.88135 C 86.996957,152.5299 79.084916,109.60715 77.697323,103.15535 77.239206,101.02526 76.290321,98.708398 75.588686,98.006767 73.858625,96.276704 69.481364,95.939701 41.943503,95.416444 18.912263,94.97882 18.784119,94.96781 14.98613,93.10035 5.9301525,88.647555 1.7207223,82.465173 1.2175486,72.878463 0.93363648,67.469231 1.0925347,66.529825 2.9249011,62.784603 5.3726999,57.781483 9.5590407,53.488327 14.65694,50.753218 l 3.798097,-2.037742 30.546493,0.26978 c 34.546384,0.305106 33.103636,0.101336 45.438519,6.417657 14.215341,7.279246 24.202111,19.953836 28.475461,36.139303 l 1.25743,4.762554 70.97568,0.479978 c 39.03662,0.263988 133.95197,0.48016 210.923,0.480383 l 139.94732,4.06e-4 5.48146,3.208723 c 6.56687,3.84409 11.40111,9.00008 14.47263,15.43587 3.9004,8.17256 3.69843,9.75135 -12.05753,94.25829 -15.82454,84.87482 -19.13286,100.22058 -23.22821,107.74509 -3.14129,5.77158 -9.17873,13.1178 -14.39995,17.52154 -7.14504,6.02635 -13.7476,9.72955 -22.98868,12.89373 l -8.05572,2.75831 -81.71752,0.005 c -44.94463,0.003 -115.6718,0.2213 -157.17149,0.48585 l -75.45398,0.48099 0.4682,3.31523 c 1.29257,9.15257 5.61519,28.64137 7.01157,31.61202 1.9926,4.23908 5.70687,8.11722 10.36604,10.8234 l 3.61582,2.10016 134.8385,0.60581 134.8385,0.60582 3.43989,1.74312 c 5.05144,2.55976 8.02209,5.47198 10.79138,10.57911 2.26702,4.18083 2.46195,5.03806 2.43138,10.69213 -0.0396,7.32209 -1.23172,10.09221 -7.01207,16.29345 -6.56085,7.03856 7.10276,6.41649 -144.8191,6.59326 -107.71286,0.12534 -134.04938,-0.0272 -138.24424,-0.80085 z"
     id="path7" />
  <path
     style="fill:#d45500;stroke-width:0.723164"
     d="m 188.62582,446.22145 c -22.50302,-4.15003 -42.09133,-18.65922 -52.30699,-38.74411 -4.44889,-8.74693 -4.60858,-9.54355 -31.81382,-158.70898 C 83.606071,134.1801 78.135026,104.73878 76.983373,100.66613 76.44147,98.749752 75.618951,97.684779 74.261586,97.142033 73.122372,96.686516 61.229724,96.075892 45.559322,95.668324 19.606309,94.993318 18.692944,94.920671 15.164445,93.250819 10.038691,90.82507 6.0843524,87.209528 3.6349175,82.709108 1.9305628,79.577648 1.4717236,77.721129 1.2208593,72.94154 0.94926659,67.767023 1.1373442,66.546174 2.748123,63.02777 4.9985149,58.112266 9.8308064,53.152147 14.844294,50.611621 l 3.761811,-1.906255 30.832541,0.275921 c 34.831195,0.311704 32.564699,-0.02062 45.530332,6.675869 13.686922,7.069015 24.089672,20.423626 27.983122,35.923543 l 1.18659,4.72384 70.9928,0.480093 c 39.04604,0.264052 133.9691,0.480276 210.94013,0.480499 l 139.94732,4.06e-4 5.48146,3.208723 c 6.5043,3.80747 11.39753,8.99258 14.37613,15.23368 4.12583,8.64491 3.94414,9.96601 -15.96273,116.06607 -13.96289,74.41969 -15.41368,80.45572 -21.59539,89.84808 -4.80315,7.2978 -8.59485,11.36706 -15.29858,16.41847 -6.48231,4.88456 -13.45601,8.43649 -21.97152,11.19076 l -5.76525,1.86473 h -70.22789 c -38.62534,0 -109.36153,0.21666 -157.19154,0.48146 l -86.96365,0.48147 0.47793,3.31514 c 1.38722,9.62261 5.53571,27.9913 7.08697,31.3797 2.0696,4.52059 5.59502,8.27594 10.44626,11.12757 l 3.45044,2.02821 134.87006,0.59845 134.87005,0.59844 4.21316,2.24348 c 4.68465,2.49453 8.24626,6.23762 10.73886,11.28606 1.33373,2.70127 1.65456,4.54696 1.65127,9.49956 -0.004,5.37942 -0.25872,6.61005 -2.04353,9.85642 -1.1217,2.04023 -3.60661,5.25312 -5.52204,7.13973 -6.31419,6.21925 6.01891,5.71569 -144.26935,5.89056 -107.71286,0.12534 -134.04938,-0.0272 -138.24424,-0.80085 z"
     id="path8" />
</svg>
