<svg width="640" height="640" viewBox="0 0 640 640" fill="none" xmlns="http://www.w3.org/2000/svg">
  <defs>
    <linearGradient id="generic-bg" x1="66" y1="52" x2="576" y2="588" gradientUnits="userSpaceOnUse">
      <stop stop-color="#FFF7E6"/>
      <stop offset="1" stop-color="#FFE3BF"/>
    </linearGradient>
    <linearGradient id="generic-card" x1="170" y1="132" x2="464" y2="508" gradientUnits="userSpaceOnUse">
      <stop stop-color="#FFFFFF"/>
      <stop offset="1" stop-color="#FFF4E8"/>
    </linearGradient>
    <filter id="generic-shadow" x="116" y="108" width="408" height="424" filterUnits="userSpaceOnUse" color-interpolation-filters="sRGB">
      <feFlood flood-opacity="0" result="BackgroundImageFix"/>
      <feColorMatrix in="SourceAlpha" type="matrix" values="0 0 0 0 0 0 0 0 0 0 0 0 0 0 0 0 0 0 127 0" result="hardAlpha"/>
      <feOffset dy="18"/>
      <feGaussianBlur stdDeviation="22"/>
      <feColorMatrix type="matrix" values="0 0 0 0 0.827451 0 0 0 0 0.47451 0 0 0 0 0.12549 0 0 0 0.18 0"/>
      <feBlend mode="normal" in2="BackgroundImageFix" result="effect1_dropShadow_0_1"/>
      <feBlend mode="normal" in="SourceGraphic" in2="effect1_dropShadow_0_1" result="shape"/>
    </filter>
  </defs>

  <rect width="640" height="640" rx="64" fill="url(#generic-bg)"/>
  <circle cx="131" cy="131" r="88" fill="#FFEFD7"/>
  <circle cx="541" cy="535" r="72" fill="#FFD7A6"/>

  <g filter="url(#generic-shadow)">
    <rect x="160" y="134" width="320" height="336" rx="36" fill="url(#generic-card)"/>
    <rect x="195" y="172" width="250" height="170" rx="26" fill="#FFF1E0"/>
    <path d="M242 260L292 212C300.798 203.554 314.657 204.019 322.87 213.033L355.083 248.378C363.476 257.587 377.692 257.857 386.428 248.974L399.5 235.683C409.434 225.584 426.144 229.888 430.079 243.496L445 295.1V310H195V283.476L242 260Z" fill="#FFB35B"/>
    <circle cx="265" cy="224" r="22" fill="#FFA03A"/>
    <rect x="214" y="374" width="212" height="18" rx="9" fill="#F2C791"/>
    <rect x="214" y="407" width="165" height="18" rx="9" fill="#F7D8AF"/>
  </g>
</svg>
